<?xml version="1.0" encoding="UTF-8"?> <svg xmlns="http://www.w3.org/2000/svg" width="1200" height="129" viewBox="0 0 1200 129" fill="none"><path d="M1486.48 42.9799L1486 44.2629C1484.8 43.752 1483.49 43.7877 1482.18 43.8233L1478.55 43.4075L1479.95 42.9799C1479.67 41.2217 1477.42 41.293 1477.15 39.5467C1474.91 40.6396 1471.52 40.6515 1469.7 42.1245C1467.73 41.8632 1470.68 39.1428 1472.49 39.5467C1467.95 33.3455 1460.01 40.2 1456.65 42.9799C1455.89 45.4033 1457.96 45.2132 1457.58 47.2803C1457.38 48.5158 1454.8 47.5773 1454.8 49.0028L1455.26 50.2977L1453.86 50.7254C1461.27 53.2913 1453.95 66.3352 1447.34 60.1696C1448.19 57.5324 1453.67 59.148 1452 54.1586C1448.8 54.4199 1445.94 52.5429 1442.68 50.7135C1441.32 52.733 1440.71 52.3053 1441.76 55.002C1432.58 55.3109 1420.7 58.5421 1413.82 59.3024L1413.35 60.5973C1413.26 59.7063 1413.3 58.5421 1412.85 57.6987C1411.38 57.5442 1409.74 57.6512 1408.35 57.2116L1412.03 59.7063C1411.38 60.134 1410.99 60.8111 1411.03 61.8803C1413.07 62.5693 1414.74 63.6147 1414.74 66.1807C1411.75 66.549 1409.69 67.832 1406.36 67.8914C1405.95 67.1311 1405.54 66.3589 1404.51 66.1807L1404.03 67.4637L1402.64 67.8914C1400.32 68.426 1395.37 64.7552 1395.18 68.7467L1396.58 69.7565C1395.62 70.2079 1395 71.0395 1394.42 71.7641L1393.34 70.4692C1391.6 70.3623 1390.22 69.9109 1389.61 68.7467C1387.43 68.9962 1387.43 71.0751 1389.61 71.3364C1389.5 72.964 1386.53 71.9304 1386.82 73.9143H1387.76C1387.46 73.9975 1387.17 74.0806 1386.89 74.1876L1380.77 76.0645C1379.38 75.0191 1378.62 74.5915 1377.51 73.9143H1379.37C1378.99 70.9801 1376.86 72.8095 1378.44 69.602L1377.99 68.319L1378.44 67.0242H1377.51C1377.8 65.0284 1377.37 63.7216 1376.58 62.7237L1375.18 63.1633L1374.73 61.8684C1370.41 62.4149 1372.37 57.1641 1371.93 54.1348C1365.9 51.2005 1356.24 50.0601 1351.45 54.1348C1347.34 50.8442 1341.86 50.856 1337.48 46.3893C1335.04 46.1398 1336.75 49.7275 1333.77 48.9672C1333.72 50.4402 1334.44 51.1887 1335.62 51.5451C1335.53 53.7547 1332.16 52.9231 1330.97 54.1229C1331.97 50.5353 1331.22 50.3333 1330.97 46.3774C1324.84 45.534 1325.51 43.455 1317.94 44.6549C1316.68 44.3935 1317.17 42.5047 1317.01 41.2217C1313.34 42.6948 1308.46 43.063 1307.7 47.2328C1303.25 47.898 1301.7 45.8904 1297.46 46.3774L1297.92 47.9574L1296.52 48.9553C1295.4 50.2027 1292.1 50.1076 1294.66 52.3885C1291.75 53.4339 1288.75 54.3961 1284.42 54.111C1285.45 58.2333 1282.12 58.2927 1281.63 60.9893C1283.49 60.7042 1284.54 61.1675 1284.42 62.7C1283.79 64.5888 1281.31 61.0725 1280.69 60.1221C1278.02 63.389 1278.3 59.0411 1275.1 61.8447C1276.49 64.0067 1279.28 64.8621 1281.63 66.1451C1280.38 70.3148 1271.08 66.347 1265.79 67.0004C1260.69 67.63 1255.21 70.5049 1253.69 62.7C1257.35 63.2227 1257.8 60.7755 1258.34 58.3996C1255.36 58.9223 1255.46 56.7958 1253.69 58.3996L1254.15 59.6945C1252.9 59.3024 1251.66 59.3262 1250.43 59.2549L1250.89 58.3877C1247.43 57.2473 1245.74 54.7288 1244.37 55.8098L1243.91 57.0928L1236.19 56.7364L1237.84 55.8098C1237.62 54.5743 1235.07 55.501 1235.05 54.0992L1235.53 53.232C1236.45 53.2557 1237.39 53.0419 1238.31 52.8043L1237.84 54.0992C1240.03 54.0754 1240.58 55.5722 1243.43 54.9545C1244.28 53.4339 1247.21 53.8616 1246.23 50.666C1248.56 49.6562 1250.16 47.993 1249.96 44.643L1249.49 43.7877L1249.96 42.9205C1243.43 42.5047 1237.57 47.6129 1235.98 40.3426C1234.9 41.0672 1233.48 41.483 1231.32 41.1979V38.6201L1229.92 37.6103L1230.38 36.0422C1226.71 35.3413 1222.24 35.7214 1219.21 37.7647L1220.61 38.1924C1219.12 38.7507 1217.54 39.2853 1216.89 40.7703L1214.32 36.6837C1210.44 35.0681 1206.01 34.8305 1201.98 33.892L1202.46 32.5971C1200.43 31.8843 1199.28 30.3756 1195.93 30.8864C1196.33 32.6803 1195.29 33.1554 1195.01 34.3315C1187.12 34.486 1180.28 35.6502 1178.25 41.2098H1171.71C1169.12 40.3664 1173.07 38.917 1170.79 37.7647C1165.69 37.1707 1163.1 40.2 1159.61 38.6319C1159.01 35.4957 1160.25 34.0464 1161.48 32.609L1161.02 31.326L1162.4 30.8983C1162.17 29.9598 1160.55 30.3162 1160.54 29.1758C1156.87 30.9221 1153.29 32.7872 1147.52 32.609C1144.86 31.326 1144.92 27.5483 1144.72 24.02C1141.9 23.7587 1141.39 21.3471 1137.27 22.2975C1137.51 18.7336 1136.05 18.9474 1137.27 16.2864H1136.34C1137 15.0272 1137.2 13.1621 1136.34 11.986H1137.27C1135.52 10.3466 1137.83 10.4417 1137.27 7.69747L1135.87 6.6877L1136.33 5.1196L1131.68 5.1196C1130.19 8.31521 1127.25 10.2159 1125.16 12.8651C1129.81 17.1299 1129.1 24.6259 1125.16 28.3323C1127.12 29.3302 1127.8 27.2275 1132.61 28.3323C1132.17 25.6475 1133.42 24.4952 1136.33 24.8991C1136.87 26.6929 1138.64 27.3463 1138.19 30.0549C1129.68 31.2191 1123.91 35.3769 1113.04 33.4881C1112.97 34.8542 1113.49 36.7787 1112.11 36.9332C1112.22 39.4041 1116.08 38.4181 1115.83 41.2336C1112.04 42.9917 1106.34 39.1309 1101.85 38.6557L1102.33 39.9506L1100.93 40.3782C1100.95 41.2098 1102.07 41.0435 1102.78 41.2336C1102.15 43.4907 1098.55 43.0511 1098.13 45.534L1099.55 45.9616L1099.07 47.2446C1103.96 47.007 1104 48.8009 1107.46 47.2446C1107.15 50.1195 1101.56 48.1118 1100.93 50.6897L1102.33 51.6876L1102.12 52.4004H1099.74L1099.55 52.2578L1100.01 50.6778C1096.31 50.9392 1095.33 48.6821 1091.62 48.9553C1092.1 50.3452 1092.84 51.4144 1093.35 52.3885H1089.75V50.6778H1082.79C1081.21 45.9735 1075.89 46.5794 1072.99 43.7996C1071.04 43.4313 1070.52 44.3817 1069.27 44.6549C1064.68 40.2238 1060.43 39.7367 1060.9 31.7536C1058.69 30.637 1054.46 31.3973 1052.5 30.0311L1052.04 31.326L1050.64 30.8983C1049.89 31.3497 1049.13 31.7893 1047.84 31.7536V33.4762H1045.98C1044.55 36.5292 1049.15 33.9989 1048.78 36.0541L1049.7 35.6264L1045.51 38.2043L1045.97 36.9213H1045.04C1044.3 32.8941 1038.35 31.4923 1033.87 33.4762C1034.16 35.472 1033.72 36.7906 1032.95 37.7766H1018.97C1020.04 41.3524 1017 41.1148 1017.11 43.7996L1016.65 44.6549L1016.18 45.5221C1019.06 46.3062 1021.88 47.1496 1023.64 48.9553L1024.12 47.6604L1025.51 48.0881C1029.48 42.8254 1038.89 48.1237 1044.14 47.2209C1043.5 48.9197 1038.93 47.0189 1038.55 48.9434C1040.42 48.6464 1041.46 49.1216 1041.34 50.666L1043.68 50.2383L1043.77 50.666H1043.38C1043.49 50.5234 1043.59 50.4046 1043.68 50.2383L1042.47 50.666H1041.34V51.0699L1038.08 52.2459C1039.13 52.0321 1040.31 52.0678 1041.34 51.8539V60.3953C1040.96 58.0788 1042.36 54.1229 1038.55 54.9664C1038.73 54.2774 1039.48 54.111 1039.48 53.2438L1038.07 52.2578L1038.54 50.6778H1033.89V54.9664C1031.72 55.2396 1030.3 54.8238 1029.22 54.111L1028.75 55.4059C1027.45 55.4416 1026.5 55.4416 1025.34 56.5464C1023.28 56.8077 1021.2 57.0334 1019.29 57.8294C1018.09 56.0593 1015.94 55.6198 1013.85 55.8336L1014.31 54.9664C1012.17 55.2396 1013.28 52.4835 1011.53 52.3885C1007.52 52.5192 1003.39 54.6219 1002.21 50.6778C1006.13 49.6918 1010.2 48.8721 1012.46 46.3774L1011.05 45.3795L1011.53 43.7996H1006.87C1005.26 41.8038 1003.11 39.9624 1003.14 36.9213C1003.18 34.3553 1006.89 30.9934 1006.87 30.8983C1006.01 27.5008 1003.12 27.0731 999.407 26.5979V25.7307L998.491 26.1584C998.765 25.6357 999.359 25.1842 1000.22 24.7803C1000.38 23.8775 1000.36 22.4638 1000.35 21.1095C996.564 21.5372 992.816 23.4736 990.258 26.1584L989.175 24.8754H985.452C984.809 22.5588 987.379 23.2122 988.235 22.2856C988.033 19.6127 983.607 20.8363 980.788 20.5749C980.645 22.7133 982.251 23.236 982.644 24.8754C977.409 24.6259 972.615 24.7803 970.544 27.4532C970.413 29.8767 973.174 29.6034 974.28 30.8864C970.342 33.8445 960.574 31.4091 955.661 33.4643C958.385 39.2616 969.842 37.0044 973.352 42.0651C971.508 42.0651 972.162 44.4054 969.628 43.7877C968.807 46.5437 972.698 44.9638 972.412 47.2209C972.71 49.1929 969.723 48.1712 969.628 49.7987L970.104 51.0936L969.628 52.3766C970.378 52.5429 970.556 53.2438 971.484 53.232L974.566 51.7826L969.295 56.487L969.628 54.9545C966.226 56.974 959.218 55.6673 956.601 58.3877C958.433 58.9698 960.682 61.2507 957.529 61.8328C957.136 59.8964 952.58 61.809 951.937 60.1102H950.069V58.3877C947.416 58.8154 947.404 61.6546 946.357 63.5434C944.061 63.6622 941.872 63.6741 940.766 62.6881C941.813 58.7916 945.536 57.3542 947.285 54.0992L946.809 52.8043L948.213 52.3766C948.189 51.545 947.071 51.7114 946.357 51.5213C948.106 49.7987 949.736 50.1551 948.213 47.2209C943.942 46.4249 944.977 50.5353 941.694 50.666C935.947 49.9413 933.211 46.4606 928.666 44.643C928.5 42.766 929.428 41.9107 931.45 42.0651C934.068 42.9086 930.094 44.3579 932.378 45.5102C937.03 42.2671 939.933 46.7695 942.622 48.0881V44.643L941.23 43.6451L941.694 42.0651C940.944 41.8988 940.766 41.1979 939.838 41.2098C939.183 37.7528 943.752 39.1071 943.55 36.0541H941.694V34.3434C937.232 33.3812 937.767 37.0163 933.318 36.0541C931.724 31.421 937.542 33.6544 938.91 31.7536L937.506 30.7558L937.97 29.1758C928.119 28.3798 925.644 34.4147 919.351 36.9213C915.175 35.6145 920.873 33.9632 920.279 30.8983L918.875 31.326L919.351 30.0311C917.007 28.7837 915.686 27.9522 912.831 29.1758C912.89 33.7851 914.413 37.2183 913.759 40.3545C918.815 42.279 921.73 46.1755 924.93 49.8106C925.62 52.4479 923.324 52.341 924.002 54.9664L925.704 54.5387L924.264 55.7742C923.277 56.0831 922.135 56.19 921.742 57.1879C921.718 57.4492 921.706 57.7224 921.682 57.9838L920.291 58.4115H918.435C915.032 57.0572 920.6 57.1285 919.363 54.9783C915.579 56.5464 912.117 55.0495 914.699 51.5451H913.771V50.6897C913.497 48.4207 915.056 47.8624 917.495 48.1119C914.58 45.5934 914.592 39.9387 911.903 39.511L910.511 39.9387C910.356 38.9408 910.023 37.8598 909.583 37.5746C907.668 36.85 905.55 36.7431 903.991 38.2161L903.527 36.9332C900.279 32.8703 904.336 26.6217 897.008 25.7545L895.616 26.1821C896.318 24.9942 896.639 23.5686 896.08 22.3212C897.591 21.3709 899.458 21.0264 900.267 19.3157L899.792 20.6106C902.647 21.2283 902.54 19.1256 905.383 19.7553C906.478 19.8859 906.18 21.3234 906.311 22.3331H910.035L909.571 21.0501L910.963 20.6225C912.093 19.482 911.332 19.2682 910.963 18.0327C906.74 16.3933 903.813 11.8434 898.864 15.4548C897.603 15.1816 898.09 13.3046 897.936 12.0098C891.059 14.3025 886.157 14.0055 882.1 12.0098C881.946 9.28933 884.575 9.1349 883.956 5.99869C880.149 3.38517 877.698 3.64653 873.713 5.99869C872.476 7.89942 878.65 11.8316 872.785 13.7323L874.189 14.7421L873.713 16.3102C874.51 16.1557 874.593 16.6547 874.653 17.1774L876.045 16.7378L875.581 18.0208C874.903 20.3611 877.425 19.7553 877.437 21.4659C874.7 19.8622 871.096 22.7727 872.773 19.7434L871.369 19.3157L871.845 18.0208C868.942 17.6169 867.336 19.1019 869.061 20.6106C861.376 21.8817 854.392 18.496 852.298 24.911C848.336 24.4239 842.304 27.1087 836.451 24.911C837.403 28.6531 834.524 28.8669 833.667 30.934C830.8 31.5755 831.882 28.5699 829.015 29.2114C829.634 28.0472 831.002 27.6077 832.739 27.4889C831.145 26.6573 830.705 24.7803 829.955 23.1885C826.564 24.6378 822.757 25.7069 820.64 28.3442C816.797 27.0256 815.286 23.533 808.528 24.911C811.11 27.5958 808.921 29.5916 811.324 31.7774C811.752 34.1771 806.256 31.1003 806.66 33.4999L808.064 34.4978L807.6 36.0778C810.646 36.1253 811.146 38.525 815.048 37.8004L815.976 37.3727C816.083 38.1211 816.13 38.9527 816.452 39.4635C816.749 39.6298 817.07 39.7843 817.368 39.9506L816.892 41.2454C819.985 42.0889 815.845 42.9442 815.964 43.8233L817.368 44.251L817.058 45.1182H815.191L816.785 44.4886C815.488 44.7856 814.12 43.8471 812.776 44.5123C812.549 44.7024 812.347 44.9044 812.157 45.1182H807.683C807.196 44.8212 806.791 44.4529 806.648 43.8352L806.184 42.5403L807.588 42.1127C805.268 40.6039 806.22 40.699 807.588 38.6794C805.935 37.6934 800.295 38.5013 802.925 36.1016L802.461 34.8067L802.925 33.5118C802.056 31.8012 797.119 29.449 801.069 28.3561C799.831 28.1898 796.393 29.8529 793.621 27.5008C793.966 30.7676 794.93 30.827 791.753 31.7893C792.17 32.8466 792.955 33.5593 794.561 33.5118C792.99 37.4559 789.516 33.0842 788.969 30.934C786.506 30.6488 789.838 35.7452 786.173 34.379L786.649 35.662C785.923 35.3294 784.972 34.9374 783.865 34.5097L785.269 33.5118C782.485 32.3476 779.594 31.3022 777.81 29.2233L776.882 29.651L775.954 30.0786C773.408 29.449 774.074 31.7893 772.23 31.8012V32.6565C772.039 32.5733 771.837 32.4783 771.659 32.3833C771.159 32.3476 770.683 32.3358 770.195 32.5021C769.85 33.4168 769.862 34.7592 769.898 35.6739L769.422 34.3909C765.924 34.7592 765.187 32.5615 763.83 30.9458L762.438 30.5063L762.891 29.2233C758.358 28.4868 761.558 25.9089 761.963 23.2241L771.123 26.2059C770.731 25.4099 770.505 24.5784 769.874 23.8894C766.65 23.8181 763.759 20.5631 760.559 22.7727L761.035 21.4897C758.56 21.4897 755.717 21.1689 754.515 22.345C754.372 24.4833 755.966 25.006 756.371 26.6454C754.717 25.0298 754.003 27.3463 750.779 26.6454C750.672 24.4477 749.423 23.3073 747.055 23.2122C746.948 25.3981 745.699 26.5385 743.332 26.6454C744.176 28.7244 747.067 28.9263 749.851 29.2233C749.875 30.0549 750.981 29.8767 751.707 30.0786C746.425 32.0744 737.133 30.3756 730.292 30.9458C729.198 30.8033 729.507 29.3777 729.364 28.3561C726.949 28.7006 726.556 30.9221 723.773 30.9458C723.023 30.7795 722.845 30.0786 721.917 30.0786C722.059 28.9501 721.964 25.6238 720.977 24.0675C717.931 22.0955 716.575 27.6314 713.529 28.368C704.939 26.0277 699.538 28.5462 690.246 30.0905C687.879 26.2178 684.179 20.5749 680.003 23.2122C677.885 25.1367 683.155 26.7523 679.075 28.368L680.467 28.8075L680.003 30.0905C678.099 36.0184 668.891 27.0374 665.096 32.6684L666.499 33.096L666.035 34.3909C671.722 33.9989 673.923 36.8381 677.207 38.6794L677.659 37.3846L678.587 39.9624L678.135 40.3901C675.053 38.1686 670.818 40.6396 670.675 43.8233C672.317 45.4389 673.4 42.8017 675.339 44.6786C675.434 45.2726 675.327 45.6884 675.077 45.9735H668.094C669.057 43.752 667.546 41.2098 670.675 39.511C668.224 38.6201 667.558 36.1016 665.084 35.2106L664.62 36.4936L663.216 36.9332C662.347 37.836 659.777 37.1945 660.42 39.511C663.228 38.6438 662.074 41.4236 662.276 42.9442L663.68 42.5166L664.156 43.8114C665.619 44.0015 665.916 45.2726 666.844 45.9616H650.069L649.724 44.8093L651.116 43.8114V41.2336C647.928 43.2175 645.893 40.9247 647.404 44.6668L647.88 45.534L647.642 45.9616H645.525L647.868 45.534C645.798 45.4983 643.443 45.8666 641.92 44.2391C640.718 44.3104 639.957 45.0826 639.35 45.9735H633.152C632.343 45.2251 631.605 44.4054 631.557 42.9561C630.201 44.0015 628.904 45.1182 627.334 45.9735L594.783 45.9735C594.783 45.8547 594.795 45.7359 594.819 45.6171L594.2 45.9735H592.154C591.666 45.2251 591.464 44.2153 591.523 42.9561C586.86 42.3621 578.329 40.8415 576.628 40.3782L576.961 41.9226C574.796 41.3167 572.535 41.9226 570.584 42.8135L571.048 41.2454C564.136 42.9086 557.652 40.9128 550.561 40.3901L551.037 41.6731L549.633 42.1008C550.311 44.0609 552.429 44.6786 554.297 45.5459C554.214 45.7003 554.13 45.8428 554.047 45.9735H553.369V46.7338C550.597 48.884 546.706 41.2573 542.197 43.8233L542.661 45.1063L541.269 45.5459C540.127 46.7813 537.712 46.8526 536.606 48.1237C535.963 50.2621 538.164 49.7987 539.057 50.5472H536.606V50.2739H535.392C534.869 49.8344 533.81 49.8938 532.87 49.8463C532.918 50.0126 532.989 50.1551 533.084 50.2739H531.537C532.894 48.8484 533.679 47.0308 535.654 44.6905L534.262 44.251L534.726 42.968C535.166 39.9862 529.682 42.4809 529.146 40.3901L527.754 40.8178L527.29 39.5229C526.457 39.903 525.625 40.2713 525.422 41.2454H522.638L523.102 42.8135C521.282 42.4334 519.331 42.3859 517.523 42.8135L517.987 41.2454H500.307L498.892 40.8059C499.344 39.6655 499.486 38.525 499.82 37.3727L500.295 38.6676C501.426 38.2993 502.199 37.5628 502.14 36.0897C505.292 37.4083 506.185 35.4482 507.731 37.8122C510.955 37.9192 512.121 36.1372 514.251 35.2344L513.787 33.9395C516.523 37.1589 520.414 35.1156 524.03 35.662L515.179 34.1652V31.7774L513.775 31.3616L515.179 30.934C513.335 29.4728 509.373 29.9836 506.791 29.2114C507.065 25.4456 513.144 27.0374 511.455 21.4659C509.206 21.8223 509.432 19.8978 506.791 20.6106C506.97 19.9097 507.719 19.7553 507.719 18.888L507.493 17.3912L508.647 16.3102C508.826 15.5736 508.29 15.5024 507.719 15.4548L507.267 16.7497L505.863 17.1893C502.163 16.5596 502.128 16.5596 498.416 17.1893L497.94 18.4723C496.929 16.3933 494.347 16.726 492.348 16.7616L492.812 15.4667C490.421 11.4039 487.887 15.538 486.281 17.1893L486.756 18.0446L483.021 17.6169L484.425 17.1893V12.8888L483.021 12.4612L483.497 11.1782C478.988 11.3207 476.025 10.0496 472.325 9.45565C473.384 6.75898 472.052 7.18664 473.253 5.15523L471.861 4.72757C473.206 4.01479 475.775 4.48998 476.192 2.7318C474.395 1.4488 471.968 0.842942 469.993 2.1497L470.457 0.866701C469.613 0.201444 468.352 -0.0599085 466.733 0.0113691L467.198 1.59135L465.794 2.58924C466.234 5.27403 464.985 6.42635 462.082 6.02245C462.76 6.83026 463.771 7.31732 464.878 7.74499C462.962 10.5604 459.869 12.283 460.214 17.2011H451.838C457.144 17.0229 450.993 11.3801 456.502 12.0335C457.192 9.39625 453.29 10.9881 454.646 7.74499C450.934 8.23205 449.209 11.5108 445.33 9.45565L445.794 10.7505L444.391 11.1901C443.998 13.1146 439.287 11.0594 439.739 13.7679L441.321 14.3738L442.535 15.4905C445.89 16.2033 447.044 13.5541 449.054 15.4905C448.15 18.9474 443.022 18.5079 438.823 18.9237L439.287 20.2186L437.883 20.6462C434.397 22.8796 443.808 22.4282 439.751 24.9466L440.215 26.2296L439.751 27.5245C439.596 31.2309 442.404 31.0409 442.535 36.1135C440.952 37.6222 433.481 39.511 432.303 36.1135L430.887 36.5411L429.495 36.1135C427.889 35.0799 423.166 35.0681 425.771 32.6684L424.51 31.6348L424.843 30.0905C422.464 31.5636 421.584 29.1045 420.192 30.9577L420.656 32.2526L419.252 32.6684C419.085 33.4049 419.621 33.4881 420.192 33.5356C418.776 36.9213 413.648 33.595 409.936 35.2581C408.021 35.0205 409.722 31.4448 407.152 31.813V30.9577L406.224 31.3854L405.284 30.9577C403.976 34.6285 398.206 30.2687 397.837 33.5356L398.301 34.8305C397.254 35.472 396.171 35.9709 395.505 37.4083L394.101 36.9807C393.316 36.8144 393.221 37.3133 393.173 37.836L392.709 38.7032C391.769 38.7982 390.841 38.8339 389.925 39.1309L390.377 37.8479C386.023 38.4181 384.429 36.4698 381.99 35.27L380.288 35.6977L379.206 34.4147C376.6 34.8661 377.481 38.5488 376.41 40.4258L381.99 40.4258L381.99 43.859L382.466 44.7143L381.99 45.5815C383.251 45.8428 382.775 47.7317 382.918 49.0147L384.31 49.4424C384.095 49.6681 383.869 49.9057 383.643 50.1314C383.358 51.4619 383.691 52.2935 384.238 53.0775C385.547 53.2201 386.784 53.3626 388.033 53.7428L386.63 54.1823C387.641 56.1068 392.483 54.5031 391.293 58.4709C387.105 59.1836 388.842 54.4318 383.846 55.893C383.917 57.1166 383.988 58.3283 382.906 58.4709C383.322 57.0691 377.838 57.0691 378.254 58.4709L379.658 59.4806L379.23 60.9299L377.148 60.9299L375.934 60.0627L376.398 58.4827C375.648 58.0194 374.887 57.5918 373.602 57.6393C371.318 56.487 375.28 55.0376 372.674 54.1942C371.841 54.8595 370.568 55.1089 368.95 55.0495C367.903 53.1607 365.833 52.1866 365.227 49.8938L363.823 50.3215L362.431 49.8938C358.374 49.3354 351.902 51.0224 349.391 49.0385C351.783 48.9434 353.841 48.5395 354.983 47.3159L353.603 46.318L354.055 44.738C351.426 45.4389 351.652 43.5263 349.391 43.8827C348.666 40.9128 350.26 40.0931 352.187 39.5823C351.878 41.3048 352.378 42.279 354.043 42.1602C360.491 39.9268 358.921 35.0562 363.359 31.8368L362.895 30.5419C364.346 30.5538 365.928 30.8508 366.273 31.0409C366.5 30.9696 366.726 30.8983 367.035 30.7439C367.606 30.0192 367.725 28.368 368.474 27.1206C366.488 26.5385 363.275 26.1346 362.026 28.0472C362.002 28.3086 361.979 28.5699 361.967 28.8431L360.563 28.4036C356.672 29.2233 355.483 28.7125 353.127 31.8487V32.704C352.461 32.3595 351.676 32.4308 351.069 32.5496C350.867 32.9297 350.605 33.2505 350.331 33.5593V32.6921C345.12 38.9408 336.697 40.6752 327.964 36.1372C330.165 34.4503 335.948 36.7668 338.208 37.8598C341.158 37.147 342.943 35.3532 344.728 33.5593L343.336 32.5496L343.788 30.9815C341.801 29.0926 337.911 28.9501 334.484 28.3917L333.401 29.6866L333.08 26.6811L338.672 25.1011L338.208 26.6811C345.608 26.5147 346.964 29.2708 352.175 25.8139L350.771 25.3862L351.235 24.0913C349.106 19.9572 341.42 17.0942 338.196 18.9356C336.364 18.3416 335.721 16.6428 335.4 14.6352C329.499 17.51 327.56 10.0259 322.361 9.46753L321.897 10.7624L320.505 10.3347C320.386 13.0789 318.399 14.1243 314.913 13.7679L315.377 15.0509L313.985 15.4786C313.545 19.3157 319.398 17.3556 320.505 19.779L321.897 19.3513C321.052 20.5512 320.743 21.2402 320.505 21.9292L319.577 21.5016C315.08 24.1507 313.224 18.6505 310.261 20.6462L310.725 21.9411C308.643 20.5749 305.871 19.0662 303.266 20.2186L303.742 18.9237C302.338 17.0586 297.793 18.104 299.078 13.7679C294.248 13.6373 288.192 14.647 286.979 11.1901L285.575 11.6177L285.111 10.3347C281.839 10.4892 278.127 11.0475 279.519 6.90154C278.413 10.608 272.643 12.1523 273.927 15.5024H272.167C278.544 15.8944 275.926 24.5784 280.435 26.6811C275.581 29.7935 267.122 24.9466 262.756 27.5483L263.208 28.8313L261.804 29.2589C261.388 30.0192 260.995 30.7914 259.948 30.9815L258.544 31.4091L257.164 30.9815C255.296 34.0226 252.881 31.2309 248.777 31.8368C251.953 34.0345 251.394 36.8144 248.777 39.5823L250.181 40.5921L249.705 42.1602C252.025 42.5997 253.536 43.7877 255.296 44.738C257.533 43.6451 259.092 41.9226 259.02 38.7151L265.54 38.7151C267.087 42.1008 263.351 42.3859 266.468 45.5934L266.932 46.4487C260.829 44.2035 255.701 48.2663 250.181 46.1874C249.598 46.4368 249.015 46.6863 248.753 47.0546C248.646 47.5179 248.527 48.0049 248.289 48.5989L247.837 47.3159C247.04 47.1615 246.945 47.6485 246.897 48.1831C243.923 44.1916 236.88 41.8275 232.93 41.3048L232.93 39.5823L231.216 40.01C231.764 36.1847 225.922 35.7452 223.138 34.6404C223.352 36.2323 223.852 37.9192 225.006 39.1428L223.602 38.7151C218.605 42.3384 206.102 37.5271 213.359 32.6921C211.205 30.6726 204.591 32.7753 202.187 30.9815C202.068 33.7375 197.226 34.7354 199.403 37.0044C197.321 38.2161 193.264 37.6459 192.884 40.4376C190.79 40.0812 193.015 35.7214 190.088 36.1372C190.885 34.8542 192.443 34.2959 194.752 34.4266C193.514 31.5398 190.766 30.0786 186.364 30.1261C184.341 34.0464 187.066 38.038 180.784 38.727L181.248 40.0218L179.844 40.4495V43.0274L180.308 43.8946L179.844 44.7499H180.772L182.176 45.1776L182.652 46.4725C184.151 45.1776 189.517 45.1776 191.028 46.4725C189.612 48.5989 187.256 49.87 184.508 50.7729C186.102 52.1509 185.365 55.1921 183.58 55.9286C183.711 58.3877 187.459 57.4967 190.1 57.6512C188.387 52.9587 196.762 50.7848 197.547 45.6053L196.155 45.1657L196.619 43.8827H195.691C196.251 38.2399 210.325 43.0868 207.791 45.6053C208.897 47.1615 212.645 46.2824 214.322 47.3159C215.714 46.3061 216.94 45.1657 218.046 43.8827C220.961 43.4669 221.841 44.9519 222.698 46.4606L224.102 46.0329L223.626 47.3159C230.169 48.4445 235.761 50.4402 238.533 55.0495C235.975 57.2829 232.656 58.7916 229.23 60.2053C226.684 60.8349 227.35 58.5065 225.506 58.4827C226.267 56.3325 228.052 55.1089 228.29 52.4717C225.934 52.0559 224.138 51.9965 220.842 50.761C221.508 52.5073 223.757 54.1586 221.77 55.9167C219.819 56.285 219.307 55.3346 218.046 55.0495L217.582 56.3325C216.607 56.0355 215.179 55.8811 213.847 56.3325L214.311 55.0495C212.978 54.3249 211.455 53.7903 211.515 51.7826L214.775 51.1887C213.168 51.5213 211.372 50.5709 210.111 52.0559L210.587 50.761C207.91 50.9273 205.864 50.5353 204.995 49.0385C206.256 53.5765 204.293 57.2948 194.752 55.9167C193.824 59.0767 191.325 60.7755 191.028 64.5176C186.578 62.0347 180.951 60.6329 179.856 55.0614C173.265 54.1229 175.193 61.0725 167.757 59.3618C170.005 61.8684 165.009 63.187 161.237 62.8069C159.476 64.1374 162.57 66.1688 160.309 67.9627C154.765 67.2499 152.743 65.7293 148.21 66.252C147.662 68.9962 149.959 68.9011 148.21 70.5405C143.498 71.1464 142.987 67.9033 137.966 68.818C139.882 65.2303 151.66 66.8341 148.21 61.0844C146.639 59.5638 145.081 61.8447 141.678 61.0844C136.824 51.058 120.132 62.1535 113.743 53.3389C110.995 54.5862 112.946 55.2634 111.888 58.4946C113.565 60.0984 116.599 60.4666 119.335 61.0844C118.062 63.0564 115.504 63.8523 113.743 65.3729C109.068 61.9991 106.308 66.0382 104.44 61.9397C102.156 62.4149 102.441 65.266 98.8363 64.5176C99.0623 61.7971 99.5382 59.54 94.1845 58.4946C93.5182 56.1662 98.5746 59.1123 97.8964 56.7839L96.5045 56.3444L96.9684 55.0614C93.1137 54.0279 89.6517 52.638 83.9291 53.3389L84.3931 54.9189L83.0011 55.9167C83.3224 57.0453 84.6429 57.271 84.8571 58.4946C84.7381 60.9656 78.4683 57.7581 78.3255 60.2172L79.7175 61.2269L79.2535 62.795C82.8584 61.8447 82.5728 65.8362 84.8452 63.6504L84.3693 62.3792L85.7732 62.795C87.7243 63.1633 88.2359 62.2129 89.4851 61.9397C89.4851 64.2325 92.4356 63.8048 92.2809 66.2401L92.7449 67.0954L92.2809 67.9508H93.2089C94.5652 69.5664 94.589 72.4294 96.9446 73.1065C97.0398 71.0038 100.026 72.9283 99.7405 73.9737L99.2646 75.2567C98.0273 75.3755 96.7781 75.4468 95.5408 76.1239L96.0167 73.9737C93.1613 73.3441 92.614 74.8528 90.425 74.8291L90.889 76.1239L89.4851 76.5397C83.6674 75.3399 88.2716 80.4956 84.8452 79.9848C81.6924 79.6997 79.8959 75.0072 71.8058 75.6844C70.9968 72.7383 77.5522 76.0883 74.5898 72.2512L73.1859 71.8235L73.6499 70.5286C68.201 69.4595 58.6594 74.6152 56.8867 68.8061L55.1736 69.2338L54.0909 67.9389C51.0809 67.2855 50.2957 64.5651 50.3671 61.0606C44.8825 58.7322 37.0065 58.5421 31.7599 61.0606C35.6978 63.9949 42.6101 64.2087 43.8593 69.6496L43.3834 70.5168L42.9194 71.384C43.5976 72.7501 47.4761 71.182 46.6433 73.9619C43.9545 73.8549 40.54 74.4251 39.1837 73.0946H38.2557V72.2393C36.7091 73.6767 32.7949 72.9164 29.8801 73.0946L28.4762 72.6788L28.0003 71.384C25.6804 75.6725 20.636 72.9758 17.7569 77.3951C16.0912 77.5138 15.7938 76.3378 14.033 76.5278C14.7231 75.7319 15.7343 75.233 16.817 74.8172C13.4144 74.9597 15.4726 70.4455 17.745 68.7942H13.3192L14.497 66.644C14.1758 66.7272 13.8665 66.8103 13.5571 66.8935C12.7243 68.0102 12.7838 69.1387 12.6292 70.0891L12.1652 68.7942C10.3092 70.2198 10.9754 68.7229 8.44131 68.7942C6.47827 68.5566 9.78571 66.5015 7.51334 65.361C4.52713 65.2066 7.41818 69.5783 1.93356 68.7942L0.529694 69.2219L-0.874176 68.7942C-3.89606 69.4357 -5.20477 71.681 -6.46588 73.9619C-9.11896 73.8312 -8.15527 70.3742 -8.32184 67.9389C-10.8678 67.3212 -10.2016 69.6496 -12.0457 69.6496L-11.5698 70.9444C-13.8778 69.7802 -16.5071 68.6873 -19.0293 70.0772L-18.5653 68.7823C-20.5165 68.426 -21.028 69.3763 -22.3011 69.6377C-24.8589 68.8655 -20.4808 66.4777 -24.157 66.2045C-30.6648 68.4616 -22.1821 72.4056 -24.157 78.2385C-24.9184 80.4006 -29.0587 79.4383 -30.6767 80.8164C-32.4612 80.7213 -29.594 77.9415 -30.6767 75.6606C-36.6372 74.6984 -39.6829 81.5885 -38.1362 73.95L-39.5282 74.3776L-40.0041 73.0828C-44.2395 72.7145 -50.2595 73.9618 -53.0315 72.2274C-52.4248 71.3483 -50.89 71.3364 -51.1637 69.6377C-53.21 69.4832 -54.138 70.3504 -53.9714 72.2274H-54.8994C-58.5994 70.7662 -58.528 65.8362 -59.5631 61.9041C-62.4303 61.3101 -61.3477 61.3101 -64.2149 61.9041L-63.7509 63.1989L-65.1548 62.7594C-64.9882 64.6364 -65.9043 65.5036 -67.9387 65.3373C-67.2011 67.238 -64.6789 67.4875 -63.275 68.7705C-62.8229 71.4909 -67.8911 69.1031 -66.9988 72.2155C-64.9525 74.4727 -63.9056 69.5545 -61.4072 72.2155C-65.4522 74.9122 -73.1854 73.0115 -75.3745 68.7705C-79.1816 69.0081 -80.2761 72.2631 -83.7501 70.493C-82.3343 67.7607 -83.4289 66.7153 -83.7501 63.6147L-85.154 64.0424L-84.6781 62.7475L-87.4739 62.7475L-86.998 64.0424L-88.4019 63.6147C-88.2829 65.1591 -89.544 65.4323 -89.3299 67.0598H-96.7775C-93.363 64.5888 -94.5171 61.1675 -95.8495 57.6036C-98.0148 57.3185 -99.4306 57.7343 -100.513 58.4471V57.6036L-101.917 57.1641L-101.453 55.8811C-111.435 59.4687 -117.681 57.4611 -128.46 58.459C-129.542 60.336 -128.65 64.0186 -131.256 64.4819C-134.968 65.0403 -131.958 59.4093 -135.907 60.1815V59.3262C-134.837 59.4687 -134.266 59.1361 -134.051 58.459L-135.693 57.6155L-135.919 55.893C-137.514 55.5841 -137.68 56.5701 -137.787 57.6155H-135.919C-136.419 58.162 -136.645 59.0054 -136.859 59.7657L-137.787 59.3262H-142.451C-140.524 62.5574 -133.135 68.1171 -139.655 71.3721L-139.191 72.667L-140.595 73.0828C-140.369 74.6033 -138.977 75.0429 -136.871 74.8172L-135.467 74.3895L-140.119 78.2623L-139.655 77.3951C-141.511 76.813 -141.797 74.7815 -143.379 73.9619C-148.257 76.0527 -154.146 77.205 -161.998 76.5278L-163.081 77.8346L-164.794 77.3951C-165.282 78.0959 -165.758 78.7968 -165.722 79.9729H-169.446L-170.612 82.1231L-173.169 81.6955V83.418L-171.908 84.4634C-172.979 84.7366 -174.193 84.8911 -174.942 85.2237L-178.297 82.9903L-177.833 82.5627V80.4125L-175.977 79.1295C-176.382 77.205 -180.57 78.7731 -182.497 78.2623L-183.901 78.6899C-183.08 77.6683 -182.64 76.6348 -182.568 76.1714C-184.317 75.2805 -186.387 74.3895 -187.613 72.6788L-184.876 77.1218C-192.598 75.8863 -203.983 78.0128 -206.72 74.8291C-206.886 72.9402 -205.946 72.0849 -203.924 72.2512C-205.423 71.0632 -206.886 69.8159 -208.587 68.8061C-206.696 66.3827 -206.922 65.2779 -207.659 61.9278C-204.887 59.148 -201.509 62.308 -198.344 60.2053C-198.76 58.3164 -203.21 58.0551 -199.272 56.7721C-205.03 53.6477 -212.835 60.7161 -222.555 59.3499C-222.257 64.8383 -224.97 64.7314 -223.483 69.6614L-223.019 70.5286L-223.483 71.3959C-222.222 71.6572 -222.709 73.5461 -222.555 74.8291C-224.661 76.3259 -229.193 75.5775 -230.014 78.2623C-234.595 77.5614 -230.026 73.7243 -235.606 73.9619C-235.035 71.6216 -233.036 70.588 -230.014 70.5168C-230.823 68.1052 -234.856 68.6873 -236.534 67.0836V66.2282L-237.926 66.6559L-239.33 66.2282C-241.531 67.3806 -246.813 70.1485 -248.633 68.8061C-246.504 66.2876 -245.647 67.5587 -243.982 65.3729C-244.874 65.3491 -244.695 64.3275 -244.91 63.6504L-246.302 64.078L-245.838 62.7831C-246.064 60.134 -246.777 57.9244 -247.694 55.9049L-249.097 56.3325L-249.573 55.0495C-253.119 55.204 -255.688 56.2731 -256.093 59.3499C-252.31 59.3024 -254.059 64.3513 -249.573 63.6504C-253.44 66.4896 -256.676 59.2074 -260.745 61.9397C-264.397 60.1578 -264.421 55.0258 -270.976 55.9167C-271.06 54.6931 -271.131 53.4814 -270.048 53.327C-277.448 53.8616 -282.374 51.9133 -290 52.2935L-290 129L1490 129L1490 39.8318C1489.3 40.2357 1488.67 40.699 1488.14 41.2692C1489.57 44.4648 1490.43 43.6689 1486.29 42.9799H1486.48ZM492.848 50.2858V49.0028C493.597 49.1691 493.776 49.8581 494.716 49.8581C494.763 50.0126 494.787 50.1551 494.799 50.2858L492.848 50.2858ZM518.915 50.2858H511.407C511.407 50.1551 511.431 50.0126 511.467 49.8581C510.848 49.9175 510.349 50.0839 509.908 50.2858H503.948C504.459 48.8721 507.374 49.68 506.803 47.2803C508.671 49.8582 514.453 48.8246 518.903 49.0028V50.2858H518.915ZM553.381 53.2914L550.668 53.2914C550.668 52.1272 550.085 51.4857 548.729 51.5807C550.466 51.1293 551.989 51.5688 553.381 52.341V53.2795V53.2914ZM576.818 45.9973H572.476C574.022 45.9616 575.569 45.629 577.128 45.1301L576.818 45.9973ZM1059.99 50.7254H1058.67C1058.64 49.5968 1058.76 48.4445 1059.05 47.2803L1058.58 45.9973L1059.99 45.5696C1059.21 43.1224 1053.24 45.4865 1053.47 42.1245C1057.93 41.7325 1060.77 42.8373 1060.93 46.4249L1061.38 47.7198L1059.99 47.2922L1059.99 50.7372C1060.87 50.6778 1061.76 50.6778 1062.69 50.7372H1059.99V50.7254Z" fill="#202223"></path></svg> 